<svg width="32" height="32" viewBox="0 0 30 30" fill="none" xmlns="http://www.w3.org/2000/svg">
<path d="M23.7576 4.6313C23.9913 4.54643 24.1817 4.37219 24.287 4.14691C24.3922 3.92164 24.4037 3.66377 24.3188 3.43005C24.2339 3.19633 24.0597 3.00589 23.8344 2.90064C23.6091 2.79538 23.3513 2.78393 23.1175 2.8688L7.50005 8.54755V3.75005C7.50005 3.50141 7.40128 3.26295 7.22546 3.08714C7.04965 2.91132 6.81119 2.81255 6.56255 2.81255H4.68755C4.43891 2.81255 4.20045 2.91132 4.02464 3.08714C3.84882 3.26295 3.75005 3.50141 3.75005 3.75005V9.91255L2.49255 10.3688C2.25883 10.4537 2.06839 10.6279 1.96314 10.8532C1.85788 11.0785 1.84643 11.3363 1.9313 11.5701C2.01617 11.8038 2.19041 11.9942 2.41569 12.0995C2.64097 12.2047 2.89883 12.2162 3.13255 12.1313L23.7576 4.6313Z" fill="#00B1C9"/>
<path fill-rule="evenodd" clip-rule="evenodd" d="M3.77375 13.8937L22.5 7.08374V11.3625L27.5075 13.1825C27.7412 13.2674 27.9317 13.4416 28.0369 13.6669C28.1422 13.8922 28.1536 14.15 28.0688 14.3837C27.9839 14.6175 27.8096 14.8079 27.5844 14.9132C27.3591 15.0184 27.1012 15.0299 26.8675 14.945L26.25 14.72V25.3137H27.1875C27.4361 25.3137 27.6746 25.4125 27.8504 25.5883C28.0262 25.7641 28.125 26.0026 28.125 26.2512C28.125 26.4999 28.0262 26.7383 27.8504 26.9142C27.6746 27.09 27.4361 27.1887 27.1875 27.1887H2.8125C2.56386 27.1887 2.3254 27.09 2.14959 26.9142C1.97377 26.7383 1.875 26.4999 1.875 26.2512C1.875 26.0026 1.97377 25.7641 2.14959 25.5883C2.3254 25.4125 2.56386 25.3137 2.8125 25.3137H3.75V13.9025L3.77375 13.895V13.8937ZM22.5 25.3125V13.3562L24.375 14.0375V25.3125H22.5ZM11.25 17.8125C11.0014 17.8125 10.7629 17.9113 10.5871 18.0871C10.4113 18.2629 10.3125 18.5014 10.3125 18.75V24.375C10.3125 24.8925 10.7325 25.3125 11.25 25.3125H15C15.2486 25.3125 15.4871 25.2137 15.6629 25.0379C15.8387 24.8621 15.9375 24.6236 15.9375 24.375V18.75C15.9375 18.5014 15.8387 18.2629 15.6629 18.0871C15.4871 17.9113 15.2486 17.8125 15 17.8125H11.25Z" fill="#00B1C9"/>
</svg>
