<svg width="32" height="32" viewBox="0 0 32 32" fill="none" xmlns="http://www.w3.org/2000/svg">
<path fill-rule="evenodd" clip-rule="evenodd" d="M8.66659 4.16675C8.18036 4.16675 7.71404 4.3599 7.37022 4.70372C7.02641 5.04754 6.83325 5.51385 6.83325 6.00008V21.5279C7.40957 21.2917 8.03164 21.1667 8.66659 21.1667H25.1666V4.16675H8.66659ZM28.1666 2.66675C28.1666 1.83832 27.495 1.16675 26.6666 1.16675H8.66659C7.38471 1.16675 6.15533 1.67597 5.2489 2.5824C4.34248 3.48882 3.83325 4.7182 3.83325 6.00008V26.0001C3.83325 27.282 4.34248 28.5113 5.2489 29.4178C6.15533 30.3242 7.38471 30.8334 8.66659 30.8334H26.6666C27.495 30.8334 28.1666 30.1618 28.1666 29.3334V2.66675ZM25.1666 24.1667H8.66659C8.18036 24.1667 7.71404 24.3599 7.37022 24.7037C7.02641 25.0475 6.83325 25.5139 6.83325 26.0001C6.83325 26.4863 7.02641 26.9526 7.37022 27.2964C7.71404 27.6403 8.18036 27.8334 8.66659 27.8334H25.1666V24.1667Z" fill="#101010"/>
<path fill-rule="evenodd" clip-rule="evenodd" d="M10.5 13.3333C10.5 12.5048 11.1716 11.8333 12 11.8333H20C20.8284 11.8333 21.5 12.5048 21.5 13.3333C21.5 14.1617 20.8284 14.8333 20 14.8333H12C11.1716 14.8333 10.5 14.1617 10.5 13.3333Z" fill="#101010"/>
<path fill-rule="evenodd" clip-rule="evenodd" d="M16 7.83325C16.8284 7.83325 17.5 8.50482 17.5 9.33325V17.3333C17.5 18.1617 16.8284 18.8333 16 18.8333C15.1716 18.8333 14.5 18.1617 14.5 17.3333V9.33325C14.5 8.50482 15.1716 7.83325 16 7.83325Z" fill="#101010"/>
</svg>
