<svg width="21" height="25" viewBox="0 0 21 25" fill="none" xmlns="http://www.w3.org/2000/svg">
<path fill-rule="evenodd" clip-rule="evenodd" d="M3.4625 0.91075C8.17999 0.363083 12.945 0.363083 17.6625 0.91075C19.5338 1.12825 20.875 2.73575 20.875 4.57325V23.9395C20.8748 24.0991 20.8338 24.2561 20.7559 24.3955C20.6781 24.5348 20.5659 24.652 20.4301 24.7359C20.2942 24.8198 20.1392 24.8676 19.9797 24.8748C19.8203 24.882 19.6616 24.8483 19.5188 24.777L10.5625 20.3008L1.60625 24.7795C1.46323 24.8509 1.30432 24.8846 1.14463 24.8772C0.984937 24.8699 0.829768 24.8219 0.693865 24.7377C0.557962 24.6536 0.445841 24.536 0.368153 24.3963C0.290465 24.2566 0.249793 24.0994 0.250001 23.9395V4.57325C0.250001 2.73575 1.59125 1.12825 3.4625 0.91075Z" fill="#101010"/>
</svg>
