<svg width="21" height="19" viewBox="0 0 21 19" fill="none" xmlns="http://www.w3.org/2000/svg">
<path fill-rule="evenodd" clip-rule="evenodd" d="M3.38399 -1.64617C7.91278 -2.11794 12.4872 -2.11794 17.016 -1.64617C18.8124 -1.45881 20.1 -0.0740697 20.1 1.5088V18.1914C20.0998 18.3289 20.0604 18.4641 19.9857 18.5841C19.9109 18.7042 19.8033 18.8051 19.6729 18.8774C19.5425 18.9496 19.3937 18.9908 19.2405 18.997C19.0874 19.0032 18.9351 18.9742 18.798 18.9128L10.2 15.0569L1.60199 18.915C1.46468 18.9765 1.31213 19.0055 1.15883 18.9992C1.00553 18.9929 0.856565 18.9515 0.726098 18.879C0.595632 18.8065 0.487995 18.7052 0.413415 18.5849C0.338835 18.4645 0.299789 18.3291 0.299989 18.1914V1.5088C0.299989 -0.0740697 1.58759 -1.45881 3.38399 -1.64617Z" fill="white"/>
</svg>
