<svg width="30" height="30" viewBox="0 0 30 30" fill="none" xmlns="http://www.w3.org/2000/svg">
<path fill-rule="evenodd" clip-rule="evenodd" d="M5.4625 1.91075C10.18 1.36308 14.945 1.36308 19.6625 1.91075C21.5338 2.12825 22.875 3.73575 22.875 5.57325V24.9395C22.8748 25.0991 22.8338 25.2561 22.7559 25.3955C22.6781 25.5348 22.5659 25.652 22.4301 25.7359C22.2942 25.8198 22.1392 25.8676 21.9797 25.8748C21.8203 25.882 21.6616 25.8483 21.5188 25.777L12.5625 21.3008L3.60625 25.7795C3.46323 25.8509 3.30432 25.8845 3.14463 25.8772C2.98494 25.8699 2.82977 25.8219 2.69387 25.7377C2.55796 25.6536 2.44584 25.536 2.36815 25.3963C2.29047 25.2566 2.24979 25.0994 2.25 24.9395V5.57325C2.25 3.73575 3.59125 2.12825 5.4625 1.91075Z" fill="#00B1C9"/>
</svg>
