<svg width="28" height="24" viewBox="0 0 28 24" fill="black" xmlns="http://www.w3.org/2000/svg">
<path fill-rule="evenodd" clip-rule="evenodd" d="M4.36121 -5.49453C10.7656 -6.16849 17.2344 -6.16849 23.6388 -5.49453C26.1792 -5.22687 28 -3.24867 28 -0.987431V22.8448C27.9997 23.0413 27.9441 23.2344 27.8384 23.4059C27.7327 23.5774 27.5804 23.7216 27.396 23.8248C27.2116 23.9281 27.0011 23.9869 26.7846 23.9957C26.5681 24.0046 26.3527 23.9632 26.1588 23.8754L14 18.3669L1.84121 23.8785C1.64705 23.9664 1.43132 24.0078 1.21452 23.9988C0.997733 23.9898 0.787079 23.9307 0.602581 23.8271C0.418082 23.7235 0.265868 23.5789 0.160402 23.407C0.0549348 23.235 -0.000281044 23.0415 1.07568e-06 22.8448V-0.987431C1.07568e-06 -3.24867 1.82085 -5.22687 4.36121 -5.49453Z" fill="white"/>
</svg>
