<svg width="19" height="22" viewBox="0 0 19 22" fill="none" xmlns="http://www.w3.org/2000/svg">
<path fill-rule="evenodd" clip-rule="evenodd" d="M10.9335 0.27689C9.81146 0.241037 8.68855 0.241037 7.5665 0.27689H10.9335ZM7.5665 0.27689C5.96198 0.327445 4.75 1.66379 4.75 3.22752V3.45429C3.80044 3.5414 2.85357 3.6563 1.91064 3.79883C1.56279 3.85071 1.21716 3.90663 0.87177 3.96656C0.463656 4.03738 0.190224 4.42564 0.261044 4.83375C0.331864 5.24187 0.720117 5.5153 1.12823 5.44448C1.19769 5.43243 1.26713 5.42054 1.33658 5.40883L2.34221 18.481C2.40033 19.2347 2.7408 19.9387 3.29553 20.4522C3.8502 20.9656 4.57821 21.2507 5.334 21.2505H13.1658M13.1658 21.2505C13.9216 21.2507 14.6498 20.9656 15.2045 20.4522C15.7592 19.9387 16.0997 19.2348 16.1578 18.4812L17.1633 5.40981C17.2328 5.42154 17.3023 5.43343 17.3718 5.44548C17.7799 5.5163 18.1681 5.24287 18.239 4.83475C18.3098 4.42664 18.0363 4.03838 17.6282 3.96756C17.2826 3.90759 16.9374 3.85175 16.5907 3.79904C15.6476 3.65645 14.6998 3.54142 13.75 3.45429V3.22752C13.75 1.66257 12.5378 0.327438 10.9335 0.27689M12.9422 4.89129C13.8563 4.96206 14.768 5.05935 15.6764 5.18303L12.9422 4.89129ZM15.6764 5.18303L14.6622 18.3659C14.6332 18.7427 14.4629 19.0946 14.1856 19.3514C13.9082 19.6081 13.5442 19.7506 13.1662 19.7505H5.334C4.95606 19.7506 4.5918 19.6081 4.31443 19.3514C4.03711 19.0947 3.86688 18.7428 3.83779 18.366C3.83779 18.3659 3.8378 18.366 3.83779 18.366L2.82364 5.18303C3.73196 5.05935 4.64373 4.96206 5.55779 4.89129M1.33658 5.40883L1.27421 4.59805L2.022 4.54052M6.25 3.33998C8.24815 3.21845 10.2518 3.21845 12.25 3.33998V3.22752C12.25 2.43262 11.642 1.79984 10.8865 1.77615C9.79608 1.7413 8.70438 1.74129 7.61396 1.77614C6.8587 1.79982 6.25 2.4334 6.25 3.22752V3.33998ZM5.55779 4.89129C8.01553 4.70135 10.4845 4.70135 12.9422 4.89129H5.55779ZM6.48119 7.00107C6.8951 6.98516 7.24354 7.3078 7.25945 7.72171L7.60545 16.7217C7.62136 17.1356 7.29872 17.4841 6.88481 17.5C6.47091 17.5159 6.12247 17.1932 6.10655 16.7793L5.76055 7.77933C5.74464 7.36543 6.06728 7.01699 6.48119 7.00107ZM12.0188 7.00107C12.4327 7.01699 12.7554 7.36543 12.7394 7.77933L12.3934 16.7793C12.3775 17.1932 12.0291 17.5159 11.6152 17.5C11.2013 17.4841 10.8786 17.1356 10.8946 16.7217L11.2406 7.72171C11.2565 7.3078 11.6049 6.98516 12.0188 7.00107Z" fill="white"/>
</svg>
