<svg width="19" height="22" viewBox="0 0 19 22" fill="none" xmlns="http://www.w3.org/2000/svg">
<path fill-rule="evenodd" clip-rule="evenodd" d="M10.9336 0.27689C9.81158 0.241037 8.68867 0.241037 7.56662 0.27689H10.9336ZM7.56662 0.27689C5.96211 0.327445 4.75012 1.66379 4.75012 3.22752V3.45429C3.80056 3.5414 2.8537 3.6563 1.91076 3.79883C1.56291 3.85071 1.21729 3.90663 0.871892 3.96656C0.463778 4.03738 0.190347 4.42564 0.261166 4.83375C0.331986 5.24187 0.720239 5.5153 1.12835 5.44448C1.19781 5.43243 1.26725 5.42054 1.33671 5.40883L2.34233 18.481C2.40045 19.2347 2.74092 19.9387 3.29565 20.4522C3.85032 20.9656 4.57833 21.2507 5.33412 21.2505H13.1659M13.1659 21.2505C13.9217 21.2507 14.6499 20.9656 15.2046 20.4522C15.7593 19.9387 16.0998 19.2348 16.1579 18.4812L17.1635 5.40981C17.233 5.42154 17.3024 5.43343 17.3719 5.44548C17.78 5.5163 18.1683 5.24287 18.2391 4.83475C18.3099 4.42664 18.0365 4.03838 17.6284 3.96756C17.2827 3.90759 16.9375 3.85175 16.5909 3.79904C15.6477 3.65645 14.6999 3.54142 13.7501 3.45429V3.22752C13.7501 1.66257 12.5379 0.327438 10.9336 0.27689M12.9423 4.89129C13.8564 4.96206 14.7682 5.05935 15.6765 5.18303L12.9423 4.89129ZM15.6765 5.18303L14.6623 18.3659C14.6333 18.7427 14.4631 19.0946 14.1857 19.3514C13.9083 19.6081 13.5443 19.7506 13.1663 19.7505H5.33412C4.95619 19.7506 4.59192 19.6081 4.31456 19.3514C4.03723 19.0947 3.867 18.7428 3.83791 18.366C3.83791 18.3659 3.83792 18.366 3.83791 18.366L2.82377 5.18303C3.73208 5.05935 4.64385 4.96206 5.55791 4.89129M1.33671 5.40883L1.27433 4.59805L2.02212 4.54052M6.25012 3.33998C8.24828 3.21845 10.252 3.21845 12.2501 3.33998V3.22752C12.2501 2.43262 11.6421 1.79984 10.8866 1.77615C9.7962 1.7413 8.7045 1.74129 7.61408 1.77614C6.85882 1.79982 6.25012 2.4334 6.25012 3.22752V3.33998ZM5.55791 4.89129C8.01566 4.70135 10.4846 4.70135 12.9423 4.89129H5.55791ZM6.48131 7.00107C6.89522 6.98516 7.24366 7.3078 7.25957 7.72171L7.60557 16.7217C7.62148 17.1356 7.29884 17.4841 6.88493 17.5C6.47103 17.5159 6.12259 17.1932 6.10668 16.7793L5.76068 7.77933C5.74476 7.36543 6.0674 7.01699 6.48131 7.00107ZM12.0189 7.00107C12.4328 7.01699 12.7555 7.36543 12.7396 7.77933L12.3936 16.7793C12.3777 17.1932 12.0292 17.5159 11.6153 17.5C11.2014 17.4841 10.8788 17.1356 10.8947 16.7217L11.2407 7.72171C11.2566 7.3078 11.605 6.98516 12.0189 7.00107Z" fill="#101010"/>
</svg>
