<svg width="33" height="47" viewBox="0 0 33 47" fill="none" xmlns="http://www.w3.org/2000/svg">
<path d="M9.625 14.9063H6.1875C4.81998 14.9063 3.50847 15.4495 2.54148 16.4165C1.5745 17.3835 1.03125 18.695 1.03125 20.0625V40.6875C1.03125 42.055 1.5745 43.3665 2.54148 44.3335C3.50847 45.3005 4.81998 45.8438 6.1875 45.8438H26.8125C28.18 45.8438 29.4915 45.3005 30.4585 44.3335C31.4255 43.3665 31.9688 42.055 31.9688 40.6875V20.0625C31.9688 18.695 31.4255 17.3835 30.4585 16.4165C29.4915 15.4495 28.18 14.9063 26.8125 14.9063H23.375M23.375 8.03125L16.5 1.15625M16.5 1.15625L9.625 8.03125M16.5 1.15625V30.375" stroke="#1E1E1E" stroke-width="1.5" stroke-linecap="round" stroke-linejoin="round"/>
</svg>
