<svg width="21" height="21" viewBox="0 0 21 21" fill="none" xmlns="http://www.w3.org/2000/svg">
<path d="M10.125 0C10.3316 0 10.5297 0.0820567 10.6757 0.228119C10.8218 0.374181 10.9038 0.572283 10.9038 0.778846V3.11538C10.9038 3.32195 10.8218 3.52005 10.6757 3.66611C10.5297 3.81217 10.3316 3.89423 10.125 3.89423C9.91844 3.89423 9.72034 3.81217 9.57427 3.66611C9.42821 3.52005 9.34615 3.32195 9.34615 3.11538V0.778846C9.34615 0.572283 9.42821 0.374181 9.57427 0.228119C9.72034 0.0820567 9.91844 0 10.125 0ZM5.45192 10.125C5.45192 8.88562 5.94426 7.69701 6.82064 6.82064C7.69701 5.94426 8.88562 5.45192 10.125 5.45192C11.3644 5.45192 12.553 5.94426 13.4294 6.82064C14.3057 7.69701 14.7981 8.88562 14.7981 10.125C14.7981 11.3644 14.3057 12.553 13.4294 13.4294C12.553 14.3057 11.3644 14.7981 10.125 14.7981C8.88562 14.7981 7.69701 14.3057 6.82064 13.4294C5.94426 12.553 5.45192 11.3644 5.45192 10.125ZM17.2842 4.06662C17.4217 3.91897 17.4966 3.72369 17.4931 3.52192C17.4895 3.32014 17.4078 3.12763 17.2651 2.98493C17.1224 2.84223 16.9299 2.76049 16.7281 2.75693C16.5263 2.75337 16.331 2.82827 16.1834 2.96585L14.5312 4.617C14.4568 4.68881 14.3974 4.77472 14.3565 4.86973C14.3157 4.96473 14.2941 5.06692 14.2932 5.17033C14.2922 5.27375 14.3119 5.37631 14.351 5.47205C14.3901 5.56779 14.4479 5.65477 14.521 5.72793C14.5941 5.8011 14.681 5.85897 14.7767 5.89818C14.8724 5.93738 14.975 5.95714 15.0784 5.95629C15.1818 5.95544 15.284 5.934 15.3791 5.89323C15.4741 5.85245 15.5601 5.79316 15.632 5.71881L17.2842 4.06662ZM20.25 10.125C20.25 10.3316 20.1679 10.5297 20.0219 10.6757C19.8758 10.8218 19.6777 10.9038 19.4712 10.9038H17.1346C16.9281 10.9038 16.7299 10.8218 16.5839 10.6757C16.4378 10.5297 16.3558 10.3316 16.3558 10.125C16.3558 9.91844 16.4378 9.72034 16.5839 9.57427C16.7299 9.42821 16.9281 9.34615 17.1346 9.34615H19.4712C19.6777 9.34615 19.8758 9.42821 20.0219 9.57427C20.1679 9.72034 20.25 9.91844 20.25 10.125ZM16.1834 17.2842C16.331 17.4217 16.5263 17.4966 16.7281 17.4931C16.9299 17.4895 17.1224 17.4078 17.2651 17.2651C17.4078 17.1224 17.4895 16.9299 17.4931 16.7281C17.4966 16.5263 17.4217 16.331 17.2842 16.1834L15.633 14.5312C15.5612 14.4568 15.4753 14.3974 15.3803 14.3565C15.2853 14.3157 15.1831 14.2941 15.0797 14.2932C14.9763 14.2922 14.8737 14.3119 14.7779 14.351C14.6822 14.3901 14.5952 14.4479 14.5221 14.521C14.4489 14.5941 14.391 14.681 14.3518 14.7767C14.3126 14.8724 14.2929 14.975 14.2937 15.0784C14.2946 15.1818 14.316 15.284 14.3568 15.3791C14.3975 15.4741 14.4568 15.5601 14.5312 15.632L16.1834 17.2842ZM10.125 16.3558C10.3316 16.3558 10.5297 16.4378 10.6757 16.5839C10.8218 16.7299 10.9038 16.9281 10.9038 17.1346V19.4712C10.9038 19.6777 10.8218 19.8758 10.6757 20.0219C10.5297 20.1679 10.3316 20.25 10.125 20.25C9.91844 20.25 9.72034 20.1679 9.57427 20.0219C9.42821 19.8758 9.34615 19.6777 9.34615 19.4712V17.1346C9.34615 16.9281 9.42821 16.7299 9.57427 16.5839C9.72034 16.4378 9.91844 16.3558 10.125 16.3558ZM5.71985 15.632C5.86165 15.485 5.94006 15.2882 5.93819 15.084C5.93632 14.8798 5.85432 14.6845 5.70985 14.5402C5.56537 14.3958 5.36999 14.314 5.16578 14.3123C4.96157 14.3107 4.76486 14.3892 4.61804 14.5312L2.96585 16.1823C2.8239 16.3292 2.7453 16.5259 2.74698 16.7301C2.74866 16.9343 2.83048 17.1297 2.97482 17.2742C3.11915 17.4186 3.31446 17.5006 3.51867 17.5025C3.72288 17.5044 3.91966 17.426 4.06662 17.2842L5.71881 15.633L5.71985 15.632ZM3.89423 10.125C3.89423 10.3316 3.81217 10.5297 3.66611 10.6757C3.52005 10.8218 3.32195 10.9038 3.11538 10.9038H0.778846C0.572283 10.9038 0.374181 10.8218 0.228119 10.6757C0.0820567 10.5297 0 10.3316 0 10.125C0 9.91844 0.0820567 9.72034 0.228119 9.57427C0.374181 9.42821 0.572283 9.34615 0.778846 9.34615H3.11538C3.32195 9.34615 3.52005 9.42821 3.66611 9.57427C3.81217 9.72034 3.89423 9.91844 3.89423 10.125ZM4.61804 5.71881C4.76568 5.85638 4.96096 5.93128 5.16273 5.92772C5.36451 5.92416 5.55702 5.84242 5.69972 5.69972C5.84242 5.55702 5.92416 5.36451 5.92772 5.16273C5.93128 4.96096 5.85638 4.76568 5.71881 4.61804L4.06765 2.96585C3.92083 2.8239 3.72413 2.7453 3.51991 2.74698C3.3157 2.74866 3.12032 2.83048 2.97584 2.97482C2.83137 3.11915 2.74937 3.31446 2.7475 3.51867C2.74563 3.72288 2.82404 3.91966 2.96585 4.06662L4.61804 5.71881Z" fill="white"/>
</svg>
